<svg xmlns="http://www.w3.org/2000/svg" xmlns:xlink="http://www.w3.org/1999/xlink" width="400" zoomAndPan="magnify" viewBox="0 0 300 89.999999" height="120" preserveAspectRatio="xMidYMid meet" version="1.0"><defs><g/><clipPath id="33f4aa4bb6"><path d="M 0 50.667969 L 167.6875 50.667969 L 167.6875 75.164062 L 0 75.164062 Z M 0 50.667969 " clip-rule="nonzero"/></clipPath><clipPath id="92365fc7f7"><path d="M 174.21875 17.597656 L 300 17.597656 L 300 42.09375 L 174.21875 42.09375 Z M 174.21875 17.597656 " clip-rule="nonzero"/></clipPath></defs><g fill="#ffffff" fill-opacity="1"><g transform="translate(0.00000166667, 47.399758)"><g><path d="M 20.96875 -8.140625 C 20.96875 -6.398438 20.546875 -4.890625 19.703125 -3.609375 C 18.867188 -2.328125 17.644531 -1.335938 16.03125 -0.640625 C 14.425781 0.0546875 12.472656 0.40625 10.171875 0.40625 C 9.160156 0.40625 8.171875 0.335938 7.203125 0.203125 C 6.234375 0.0664062 5.300781 -0.128906 4.40625 -0.390625 C 3.519531 -0.648438 2.679688 -0.972656 1.890625 -1.359375 L 1.890625 -7.125 C 3.273438 -6.507812 4.710938 -5.957031 6.203125 -5.46875 C 7.703125 -4.976562 9.1875 -4.734375 10.65625 -4.734375 C 11.675781 -4.734375 12.492188 -4.863281 13.109375 -5.125 C 13.734375 -5.394531 14.1875 -5.765625 14.46875 -6.234375 C 14.75 -6.703125 14.890625 -7.234375 14.890625 -7.828125 C 14.890625 -8.566406 14.640625 -9.195312 14.140625 -9.71875 C 13.648438 -10.238281 12.972656 -10.722656 12.109375 -11.171875 C 11.242188 -11.628906 10.273438 -12.117188 9.203125 -12.640625 C 8.515625 -12.960938 7.769531 -13.351562 6.96875 -13.8125 C 6.164062 -14.269531 5.40625 -14.832031 4.6875 -15.5 C 3.96875 -16.175781 3.375 -16.988281 2.90625 -17.9375 C 2.445312 -18.894531 2.21875 -20.039062 2.21875 -21.375 C 2.21875 -23.125 2.617188 -24.617188 3.421875 -25.859375 C 4.222656 -27.109375 5.367188 -28.0625 6.859375 -28.71875 C 8.347656 -29.382812 10.109375 -29.71875 12.140625 -29.71875 C 13.660156 -29.71875 15.113281 -29.539062 16.5 -29.1875 C 17.882812 -28.832031 19.332031 -28.316406 20.84375 -27.640625 L 18.828125 -22.8125 C 17.484375 -23.363281 16.273438 -23.789062 15.203125 -24.09375 C 14.140625 -24.394531 13.050781 -24.546875 11.9375 -24.546875 C 11.164062 -24.546875 10.503906 -24.421875 9.953125 -24.171875 C 9.410156 -23.921875 9 -23.570312 8.71875 -23.125 C 8.4375 -22.675781 8.296875 -22.160156 8.296875 -21.578125 C 8.296875 -20.878906 8.5 -20.289062 8.90625 -19.8125 C 9.3125 -19.34375 9.925781 -18.890625 10.75 -18.453125 C 11.570312 -18.015625 12.597656 -17.5 13.828125 -16.90625 C 15.316406 -16.195312 16.59375 -15.457031 17.65625 -14.6875 C 18.71875 -13.925781 19.535156 -13.023438 20.109375 -11.984375 C 20.679688 -10.953125 20.96875 -9.671875 20.96875 -8.140625 Z M 20.96875 -8.140625 "/></g></g><g transform="translate(22.595621, 47.399758)"><g><path d="M 39.671875 -29.296875 L 32.21875 0 L 25.140625 0 L 21.171875 -15.390625 C 21.097656 -15.679688 20.992188 -16.125 20.859375 -16.71875 C 20.722656 -17.320312 20.582031 -17.984375 20.4375 -18.703125 C 20.289062 -19.421875 20.160156 -20.09375 20.046875 -20.71875 C 19.929688 -21.351562 19.851562 -21.859375 19.8125 -22.234375 C 19.769531 -21.859375 19.691406 -21.359375 19.578125 -20.734375 C 19.460938 -20.109375 19.335938 -19.441406 19.203125 -18.734375 C 19.066406 -18.023438 18.929688 -17.363281 18.796875 -16.75 C 18.660156 -16.132812 18.550781 -15.664062 18.46875 -15.34375 L 14.53125 0 L 7.46875 0 L 0 -29.296875 L 6.109375 -29.296875 L 9.859375 -13.296875 C 9.960938 -12.816406 10.082031 -12.242188 10.21875 -11.578125 C 10.363281 -10.910156 10.503906 -10.210938 10.640625 -9.484375 C 10.785156 -8.753906 10.914062 -8.050781 11.03125 -7.375 C 11.144531 -6.707031 11.226562 -6.125 11.28125 -5.625 C 11.34375 -6.132812 11.425781 -6.726562 11.53125 -7.40625 C 11.644531 -8.082031 11.765625 -8.769531 11.890625 -9.46875 C 12.015625 -10.164062 12.144531 -10.816406 12.28125 -11.421875 C 12.414062 -12.023438 12.535156 -12.507812 12.640625 -12.875 L 16.90625 -29.296875 L 22.78125 -29.296875 L 27.046875 -12.875 C 27.140625 -12.519531 27.25 -12.035156 27.375 -11.421875 C 27.5 -10.816406 27.628906 -10.160156 27.765625 -9.453125 C 27.898438 -8.742188 28.023438 -8.050781 28.140625 -7.375 C 28.253906 -6.707031 28.335938 -6.125 28.390625 -5.625 C 28.484375 -6.289062 28.613281 -7.101562 28.78125 -8.0625 C 28.945312 -9.019531 29.125 -9.972656 29.3125 -10.921875 C 29.507812 -11.867188 29.679688 -12.660156 29.828125 -13.296875 L 33.5625 -29.296875 Z M 39.671875 -29.296875 "/></g></g><g transform="translate(62.258144, 47.399758)"><g><path d="M 21.625 0 L 19.5 -6.96875 L 8.8125 -6.96875 L 6.6875 0 L 0 0 L 10.34375 -29.40625 L 17.9375 -29.40625 L 28.3125 0 Z M 18.015625 -12.1875 L 15.890625 -19 C 15.753906 -19.445312 15.578125 -20.023438 15.359375 -20.734375 C 15.140625 -21.453125 14.914062 -22.179688 14.6875 -22.921875 C 14.46875 -23.671875 14.296875 -24.316406 14.171875 -24.859375 C 14.035156 -24.316406 13.847656 -23.640625 13.609375 -22.828125 C 13.378906 -22.023438 13.15625 -21.257812 12.9375 -20.53125 C 12.726562 -19.8125 12.578125 -19.300781 12.484375 -19 L 10.375 -12.1875 Z M 18.015625 -12.1875 "/></g></g><g transform="translate(90.562763, 47.399758)"><g><path d="M 13.046875 -29.296875 C 16.828125 -29.296875 19.582031 -28.484375 21.3125 -26.859375 C 23.050781 -25.234375 23.921875 -23 23.921875 -20.15625 C 23.921875 -18.875 23.726562 -17.644531 23.34375 -16.46875 C 22.957031 -15.300781 22.328125 -14.265625 21.453125 -13.359375 C 20.578125 -12.453125 19.410156 -11.734375 17.953125 -11.203125 C 16.492188 -10.679688 14.695312 -10.421875 12.5625 -10.421875 L 9.890625 -10.421875 L 9.890625 0 L 3.6875 0 L 3.6875 -29.296875 Z M 12.71875 -24.203125 L 9.890625 -24.203125 L 9.890625 -15.5 L 11.9375 -15.5 C 13.101562 -15.5 14.113281 -15.648438 14.96875 -15.953125 C 15.820312 -16.265625 16.484375 -16.75 16.953125 -17.40625 C 17.421875 -18.0625 17.65625 -18.90625 17.65625 -19.9375 C 17.65625 -21.375 17.253906 -22.441406 16.453125 -23.140625 C 15.648438 -23.847656 14.40625 -24.203125 12.71875 -24.203125 Z M 12.71875 -24.203125 "/></g></g><g transform="translate(116.323371, 47.399758)"><g><path d="M 13.046875 -29.296875 C 16.828125 -29.296875 19.582031 -28.484375 21.3125 -26.859375 C 23.050781 -25.234375 23.921875 -23 23.921875 -20.15625 C 23.921875 -18.875 23.726562 -17.644531 23.34375 -16.46875 C 22.957031 -15.300781 22.328125 -14.265625 21.453125 -13.359375 C 20.578125 -12.453125 19.410156 -11.734375 17.953125 -11.203125 C 16.492188 -10.679688 14.695312 -10.421875 12.5625 -10.421875 L 9.890625 -10.421875 L 9.890625 0 L 3.6875 0 L 3.6875 -29.296875 Z M 12.71875 -24.203125 L 9.890625 -24.203125 L 9.890625 -15.5 L 11.9375 -15.5 C 13.101562 -15.5 14.113281 -15.648438 14.96875 -15.953125 C 15.820312 -16.265625 16.484375 -16.75 16.953125 -17.40625 C 17.421875 -18.0625 17.65625 -18.90625 17.65625 -19.9375 C 17.65625 -21.375 17.253906 -22.441406 16.453125 -23.140625 C 15.648438 -23.847656 14.40625 -24.203125 12.71875 -24.203125 Z M 12.71875 -24.203125 "/></g></g><g transform="translate(142.08398, 47.399758)"><g><path d="M 12.796875 -17.234375 L 18.90625 -29.296875 L 25.609375 -29.296875 L 15.890625 -11.40625 L 15.890625 0 L 9.71875 0 L 9.71875 -11.203125 L 0 -29.296875 L 6.734375 -29.296875 Z M 12.796875 -17.234375 "/></g></g></g><g fill="#ffffff" fill-opacity="1"><g transform="translate(174.220159, 73.763212)"><g><path d="M 20.96875 -8.140625 C 20.96875 -5.492188 20.015625 -3.40625 18.109375 -1.875 C 16.210938 -0.351562 13.566406 0.40625 10.171875 0.40625 C 7.046875 0.40625 4.285156 -0.179688 1.890625 -1.359375 L 1.890625 -7.125 C 3.859375 -6.25 5.523438 -5.628906 6.890625 -5.265625 C 8.265625 -4.910156 9.519531 -4.734375 10.65625 -4.734375 C 12.019531 -4.734375 13.066406 -4.992188 13.796875 -5.515625 C 14.523438 -6.035156 14.890625 -6.804688 14.890625 -7.828125 C 14.890625 -8.398438 14.726562 -8.910156 14.40625 -9.359375 C 14.082031 -9.804688 13.609375 -10.238281 12.984375 -10.65625 C 12.367188 -11.070312 11.109375 -11.734375 9.203125 -12.640625 C 7.410156 -13.484375 6.066406 -14.289062 5.171875 -15.0625 C 4.273438 -15.84375 3.554688 -16.742188 3.015625 -17.765625 C 2.484375 -18.796875 2.21875 -20 2.21875 -21.375 C 2.21875 -23.96875 3.097656 -26.003906 4.859375 -27.484375 C 6.617188 -28.972656 9.046875 -29.71875 12.140625 -29.71875 C 13.660156 -29.71875 15.113281 -29.535156 16.5 -29.171875 C 17.882812 -28.804688 19.332031 -28.296875 20.84375 -27.640625 L 18.828125 -22.8125 C 17.265625 -23.457031 15.972656 -23.90625 14.953125 -24.15625 C 13.929688 -24.414062 12.925781 -24.546875 11.9375 -24.546875 C 10.757812 -24.546875 9.859375 -24.269531 9.234375 -23.71875 C 8.609375 -23.175781 8.296875 -22.460938 8.296875 -21.578125 C 8.296875 -21.023438 8.421875 -20.546875 8.671875 -20.140625 C 8.929688 -19.734375 9.335938 -19.335938 9.890625 -18.953125 C 10.441406 -18.578125 11.753906 -17.894531 13.828125 -16.90625 C 16.566406 -15.601562 18.441406 -14.289062 19.453125 -12.96875 C 20.460938 -11.65625 20.96875 -10.046875 20.96875 -8.140625 Z M 20.96875 -8.140625 "/></g></g><g transform="translate(196.815778, 73.763212)"><g><path d="M 9.890625 -15.5 L 11.9375 -15.5 C 13.851562 -15.5 15.285156 -15.875 16.234375 -16.625 C 17.179688 -17.382812 17.65625 -18.488281 17.65625 -19.9375 C 17.65625 -21.394531 17.253906 -22.46875 16.453125 -23.15625 C 15.660156 -23.851562 14.414062 -24.203125 12.71875 -24.203125 L 9.890625 -24.203125 Z M 23.921875 -20.15625 C 23.921875 -17 22.9375 -14.585938 20.96875 -12.921875 C 19 -11.253906 16.195312 -10.421875 12.5625 -10.421875 L 9.890625 -10.421875 L 9.890625 0 L 3.6875 0 L 3.6875 -29.296875 L 13.046875 -29.296875 C 16.597656 -29.296875 19.296875 -28.53125 21.140625 -27 C 22.992188 -25.46875 23.921875 -23.1875 23.921875 -20.15625 Z M 23.921875 -20.15625 "/></g></g><g transform="translate(222.576386, 73.763212)"><g><path d="M 21.625 0 L 19.5 -6.96875 L 8.8125 -6.96875 L 6.6875 0 L 0 0 L 10.34375 -29.40625 L 17.9375 -29.40625 L 28.3125 0 Z M 18.015625 -12.1875 C 16.046875 -18.5 14.9375 -22.066406 14.6875 -22.890625 C 14.445312 -23.722656 14.273438 -24.378906 14.171875 -24.859375 C 13.722656 -23.148438 12.457031 -18.925781 10.375 -12.1875 Z M 18.015625 -12.1875 "/></g></g><g transform="translate(250.881005, 73.763212)"><g><path d="M 16.125 -24.546875 C 13.789062 -24.546875 11.984375 -23.664062 10.703125 -21.90625 C 9.421875 -20.15625 8.78125 -17.707031 8.78125 -14.5625 C 8.78125 -8.03125 11.226562 -4.765625 16.125 -4.765625 C 18.1875 -4.765625 20.675781 -5.28125 23.59375 -6.3125 L 23.59375 -1.109375 C 21.195312 -0.0976562 18.515625 0.40625 15.546875 0.40625 C 11.285156 0.40625 8.023438 -0.882812 5.765625 -3.46875 C 3.515625 -6.0625 2.390625 -9.773438 2.390625 -14.609375 C 2.390625 -17.648438 2.941406 -20.316406 4.046875 -22.609375 C 5.148438 -24.898438 6.738281 -26.65625 8.8125 -27.875 C 10.894531 -29.101562 13.332031 -29.71875 16.125 -29.71875 C 18.96875 -29.71875 21.828125 -29.023438 24.703125 -27.640625 L 22.703125 -22.59375 C 21.609375 -23.113281 20.503906 -23.566406 19.390625 -23.953125 C 18.285156 -24.347656 17.195312 -24.546875 16.125 -24.546875 Z M 16.125 -24.546875 "/></g></g><g transform="translate(277.022213, 73.763212)"><g><path d="M 20.5625 0 L 3.6875 0 L 3.6875 -29.296875 L 20.5625 -29.296875 L 20.5625 -24.203125 L 9.890625 -24.203125 L 9.890625 -17.765625 L 19.8125 -17.765625 L 19.8125 -12.6875 L 9.890625 -12.6875 L 9.890625 -5.125 L 20.5625 -5.125 Z M 20.5625 0 "/></g></g></g><g clip-path="url(#33f4aa4bb6)"><path fill="#00abff" d="M 0 50.667969 L 167.648438 50.667969 L 167.648438 75.164062 L 0 75.164062 Z M 0 50.667969 " fill-opacity="1" fill-rule="nonzero"/></g><g clip-path="url(#92365fc7f7)"><path fill="#00abff" d="M 174.21875 17.597656 L 299.957031 17.597656 L 299.957031 42.09375 L 174.21875 42.09375 Z M 174.21875 17.597656 " fill-opacity="1" fill-rule="nonzero"/></g></svg>