<?xml version="1.0" encoding="utf-8" ?>
<svg xmlns="http://www.w3.org/2000/svg" xmlns:xlink="http://www.w3.org/1999/xlink" width="164" height="164">
	<path fill="#09090B" transform="scale(0.160156 0.160156)" d="M0 0L1024 0L1024 1024L0 1024L0 0Z"/>
	<path fill="#00ABFF" transform="scale(0.160156 0.160156)" d="M749.33 453.402C749.686 453.791 749.866 453.939 750.105 454.478C752.414 459.678 753.203 468.584 754.125 474.384C760.146 512.291 757.869 550.491 746.057 587.128C726.185 648.763 679.076 702.461 621.479 731.818C560.172 763.066 496.014 764.887 431.125 743.765C423.503 741.059 416.11 737.978 408.833 734.451C414.622 729.973 420.867 725.945 426.855 721.728C441.214 711.617 455.733 701.598 469.881 691.203C515.504 657.681 559.805 622.852 603.058 586.323C635.637 558.809 667.359 530.064 698.495 500.932L731.193 469.969C737.134 464.38 743.007 458.559 749.33 453.402Z"/>
	<path fill="white" transform="scale(0.160156 0.160156)" d="M686.34 582.123C689.436 581.932 692.63 582.469 695.377 583.941C698.855 585.805 701.445 589.012 702.48 592.825C703.518 596.646 703.032 600.819 701.023 604.244C698.766 608.092 695.323 609.91 691.123 610.953C687.995 611.198 685.128 611.126 682.258 609.703C678.679 607.928 676.129 604.856 674.977 601.034C673.756 596.981 674.32 592.384 676.479 588.747C678.733 584.949 682.156 583.093 686.34 582.123Z"/>
	<path fill="white" transform="scale(0.160156 0.160156)" d="M606.584 640.16C615.573 639.429 624.453 641.338 631.825 646.711C639.205 652.09 644.324 660.528 645.732 669.545C647.209 679 645.12 689.084 639.428 696.844C633.534 704.879 624.809 709.301 615.102 710.73C605.913 711.392 597.286 709.727 589.71 704.266C582.374 698.979 577.264 691.002 575.838 682.048C574.296 672.364 576.468 661.948 582.328 654.016C588.128 646.167 597.071 641.611 606.584 640.16Z"/>
	<path fill="#00ABFF" transform="scale(0.160156 0.160156)" d="M819.884 228.713C831.307 227.918 844.144 228.931 854.279 234.721C859.546 237.729 863.289 242.17 864.78 248.106C869.02 264.975 857.057 286.386 848.432 300.451C826.821 335.693 798.972 367.234 770.965 397.468C732.459 439.037 691.311 477.419 648.642 514.665C574.699 579.212 496.531 638.784 413.766 691.595C389.142 707.308 364.389 723.128 338.759 737.17C297.835 759.593 254.035 780.698 208.469 791.594C192.123 795.504 169.101 799.093 153.97 789.41C147.466 785.247 143.344 778.749 141.775 771.239C134.697 737.351 170.398 681.739 188.421 653.992C197.845 639.8 209.385 622.036 221.27 609.998C217.8 617.188 213.508 624.014 209.857 631.128C201.941 646.553 187.566 677.757 189.979 694.83C190.714 700.031 193.07 705.165 197.492 708.21C205.782 713.92 218.68 712.401 227.958 710.533C282.31 699.589 352.72 657.318 400.726 627.799C500.706 566.321 595.312 496.934 683.493 419.453C705.785 399.866 727.313 379.558 747.71 357.993C760.917 344.03 774.1 329.496 784.728 313.426C791.773 302.775 801.812 285.562 798.735 272.158C797.535 266.931 794.164 262.901 789.559 260.271C769.83 249.003 724.512 260.49 703.28 266.446C712.302 260.008 723.492 255.19 733.719 250.942C761.531 239.389 789.705 230.863 819.884 228.713Z"/>
	<path fill="white" transform="scale(0.160156 0.160156)" d="M864.827 315.908C867.948 319.263 870.211 326.214 872.124 330.478C883.811 356.525 894.256 383.208 901.007 411.01C921.173 494.068 914.742 580.843 882.284 659.867C875.599 676.142 868.202 692.519 859.021 707.555C847.486 726.448 834.639 745.293 820.36 762.23C765.489 827.311 688.441 875.16 605.703 895.094C507.948 918.646 399.118 905.184 312.737 852.453C294.062 841.526 276.644 827.955 259.882 814.322C270.813 809.121 282.884 805.592 294.137 801.018C319.857 790.562 344.974 778.729 368.704 764.275C371.653 766.391 374.651 768.353 377.823 770.121C439.779 804.646 520.212 813.054 588.262 793.643C663.142 772.284 728.697 722.254 766.633 653.944C804.219 586.262 813.707 508.132 792.385 433.663C807.229 413.281 822.802 392.684 835.671 370.999C841.41 361.328 847.055 351.466 852.13 341.431C856.418 332.953 860.299 324.262 864.827 315.908Z"/>
	<path fill="#00ABFF" transform="scale(0.160156 0.160156)" d="M703.449 782.596C705.924 782.279 708.439 782.08 710.835 782.936C713.771 783.986 716.271 786.079 717.612 788.912C718.896 791.627 719.011 794.816 717.984 797.633C716.562 801.533 713.736 803.547 710.114 805.223C708.038 805.587 705.954 805.761 703.905 805.155C700.941 804.279 698.452 802.235 697.022 799.493C695.472 796.518 695.171 793.027 696.266 789.851C697.556 786.108 699.974 784.21 703.449 782.596Z"/>
	<path fill="#00ABFF" transform="scale(0.160156 0.160156)" d="M855.406 459.107C858.043 459.225 860.489 459.697 862.752 461.115C865.712 462.969 867.679 465.851 868.343 469.282C869.007 472.714 868.245 476.367 866.236 479.229C863.774 482.739 860.531 484.202 856.41 484.871C853.959 484.746 851.583 484.336 849.43 483.106C846.407 481.379 844.195 478.598 843.372 475.197C842.548 471.795 843.249 468.239 845.156 465.323C847.616 461.56 851.117 459.892 855.406 459.107Z"/>
	<path fill="#00ABFF" transform="scale(0.160156 0.160156)" d="M505.294 270.734C519.96 270.517 534.714 271.141 549.218 273.435C619.246 284.515 676.943 321.521 718.45 378.583C702.166 390.028 686.544 402.625 670.576 414.522C644.992 433.582 618.996 452.196 593.042 470.748C536.33 511.286 477.951 549.308 418.766 586.113C382.192 607.65 345.756 628.832 307.694 647.687C283.676 610.061 269.728 568.814 267.986 524.075C265.426 458.369 289.961 395.925 334.42 347.853C379.593 299.008 439.182 273.334 505.294 270.734Z"/>
	<path fill="white" transform="scale(0.160156 0.160156)" d="M433.094 336.662C437.662 336.354 442.669 337.742 446.52 340.158C451.86 343.51 455.804 348.936 457.046 355.147C458.2 360.922 456.792 367.11 453.531 371.974C449.732 377.643 444.327 380.253 437.854 381.566C431.848 381.503 426.479 380.502 421.438 376.957C416.572 373.536 413.382 368.42 412.478 362.538C411.549 356.497 412.829 350.03 416.665 345.185C420.879 339.861 426.571 337.572 433.094 336.662Z"/>
	<path fill="white" transform="scale(0.160156 0.160156)" d="M358.906 436.695C371.748 435.656 385.109 439.514 395.282 447.443C405.502 455.408 412.342 467.273 413.785 480.179C415.281 493.565 411.438 506.694 403.022 517.214C394.255 528.174 382.186 534.285 368.343 535.808C356.099 536.998 343.472 533.403 333.629 526.075C323.15 518.273 315.516 506.314 313.781 493.277C312.05 480.265 315.248 466.351 323.386 455.947C332.077 444.837 345.031 438.324 358.906 436.695Z"/>
	<path fill="white" transform="scale(0.160156 0.160156)" d="M504.945 109.75L506.278 109.726C594.1 108.482 681.452 135.758 751.504 189.108C761.949 197.062 772.512 205.533 781.949 214.672C739.832 223.578 700.331 244.975 662.413 264.652C629.485 245.77 595.619 232.842 558.004 226.944C480.276 214.755 403.507 234.533 340.138 280.797C276.719 327.097 234.707 397.489 222.681 474.879C217.883 506.339 218.916 537.982 223.165 569.426C196.392 603.825 171.635 639.554 150.286 677.593C125.33 627.519 113.623 572.354 112.002 516.656C109.005 413.708 148.45 309.319 219.237 234.468C294.898 154.464 395.468 112.74 504.945 109.75Z"/>
	<path fill="#00ABFF" transform="scale(0.160156 0.160156)" d="M272.016 246.092C274.817 245.816 277.56 245.72 280.216 246.78C283.455 248.073 286.045 250.525 287.415 253.742C288.757 256.893 288.815 260.571 287.494 263.74C285.785 267.837 282.818 269.785 278.864 271.429C276.511 271.58 274.249 271.718 271.979 270.953C268.464 269.767 265.457 267.311 263.876 263.917C262.403 260.754 262.236 257.054 263.554 253.81C265.197 249.763 268.131 247.742 272.016 246.092Z"/>
	<path fill="#00ABFF" transform="scale(0.160156 0.160156)" d="M171.474 501.664C173.97 501.831 176.203 502.14 178.461 503.285C181.965 505.063 184.423 508.032 185.52 511.808C186.597 515.518 186.158 519.604 184.26 522.971C181.635 527.626 177.679 529.366 172.764 530.604C169.698 530.531 166.707 529.696 164.107 528.046C160.802 525.948 158.448 522.558 157.671 518.72C156.927 515.048 157.72 511.08 159.88 508.009C162.772 503.898 166.692 502.398 171.474 501.664Z"/>
	<path fill="#00ABFF" transform="scale(0.160156 0.160156)" d="M375.182 165.078C380.725 164.731 385.821 164.689 390.969 167.194C397.067 170.161 401.84 175.967 403.867 182.404C405.947 189.007 405.308 196.39 402.061 202.508C398.236 209.712 392.064 213.789 384.483 216.176C378.203 216.924 372.451 216.485 366.84 213.275C360.819 209.83 356.358 203.953 354.629 197.24C352.84 190.298 354.193 182.333 358.015 176.281C362.053 169.886 367.972 166.636 375.182 165.078Z"/>
</svg>
