<?xml version="1.0" encoding="utf-8" ?>
<svg xmlns="http://www.w3.org/2000/svg" xmlns:xlink="http://www.w3.org/1999/xlink" width="1024" height="1024">
	<path fill="#FEFEFE" d="M0 0L1024 0L1024 1024L0 1024L0 0Z"/>
	<path fill="#053460" d="M229.057 716.852C230.172 717.553 234.977 730.892 236.063 733.381C241.253 745.267 247.564 755.921 255.042 766.522C238.696 777.556 223.134 790.061 207.843 802.495C178.737 826.162 149.883 851.194 125.156 879.491C120.391 884.871 115.919 890.466 111.44 896.085C116.979 882.279 124.149 869.205 131.273 856.17C157.004 809.09 192.473 756.306 229.057 716.852Z"/>
	<defs>
		<linearGradient id="gradient_0" gradientUnits="userSpaceOnUse" x1="610.85059" y1="519.92322" x2="413.77734" y2="511.13663">
			<stop offset="0" stop-color="#0290CB"/>
			<stop offset="1" stop-color="#05C1EF"/>
		</linearGradient>
	</defs>
	<path fill="url(#gradient_0)" d="M610.15 578.853C609.827 579.225 609.694 579.4 609.279 579.752C601.27 586.532 591.617 592.505 582.665 597.969C551.304 617.11 512.344 635.941 474.648 634.535C457.267 633.887 441.863 627.397 430.054 614.474C415.481 598.526 410.16 576.398 411.195 555.218C413.447 509.171 439.593 464.855 473.294 434.486C495.84 414.169 530.385 395.698 561.445 397.507C576.372 398.376 590.915 403.759 600.905 415.216C612.277 428.259 615.731 444.627 614.494 461.551C612.792 484.841 600.166 508.493 582.542 523.639C572.088 532.623 557.097 540.291 542.943 539.069C535.461 538.423 528.416 535.15 523.669 529.195C517.381 521.308 517.529 512.397 518.471 502.96C519.574 508.297 519.803 513.069 523.312 517.617C526.942 522.321 532.453 524.689 538.274 525.213C546.153 525.922 554.067 522.951 560.094 517.955C568.542 510.95 574.257 499.626 575.155 488.711C575.826 480.552 573.434 471.721 568.026 465.479C563.284 460.006 556.723 457.237 549.579 456.859C536.712 456.179 525.159 462.082 515.846 470.563C502.301 482.9 493.485 501.719 492.697 520.014C492.135 533.07 495.383 547.065 504.478 556.841C513.325 566.349 525.294 571.155 538.16 571.639C562.103 572.54 583.34 560.131 600.437 544.416C600.195 547.039 602.634 551.561 603.403 554.333C604.64 558.785 605.876 563.3 606.749 567.839C607.437 571.417 607.809 575.119 608.776 578.635L609.767 578.502L610.15 578.853Z"/>
	<defs>
		<linearGradient id="gradient_1" gradientUnits="userSpaceOnUse" x1="825.02557" y1="132.19586" x2="307.99973" y2="754.78003">
			<stop offset="0" stop-color="#0D5AA4"/>
			<stop offset="1" stop-color="#06B0E2"/>
		</linearGradient>
	</defs>
	<path fill="url(#gradient_1)" d="M915.947 198.781C916.201 220.583 910.343 249.374 905.278 270.515C885.795 351.833 849.059 429.079 804.322 499.463C798.646 508.393 793.081 517.469 787.057 526.168C759.878 565.419 729.271 602.546 696.517 637.265C656.64 679.534 612.229 718.975 562.531 749.386C509.555 781.804 441.589 810.222 378.475 794.973C339.426 785.539 307.159 761.449 286.242 727.21C278.525 714.577 272.025 700.696 267.554 686.578C251.213 634.973 253.953 570.295 266.574 518.201C270.407 502.377 274.757 486.381 280.3 471.067C299.445 418.176 330.65 368.828 370.991 329.605C384.104 316.855 398.425 304.224 414.089 294.672C413.956 294.921 413.834 295.176 413.69 295.419C410.994 299.958 399.898 303.153 398.502 307.775C399.536 310.556 400.595 312.356 402.504 314.672C407.371 320.575 410.822 334.12 414.83 339.758C416.018 341.43 417.857 342.942 419.471 344.211C421.877 342.08 426.397 337.514 429.545 337.349C428.755 338.786 419.404 345.54 417.308 347.286C411.271 352.317 405.794 357.783 400.332 363.422C363.431 401.51 338.122 448.022 323.263 498.73C307.651 552.01 302.567 623.747 330.289 674.016C342.569 696.284 362.234 712.786 386.872 719.665C436.701 733.577 500.975 706.143 543.86 681.824C625.312 635.637 692.208 568.936 751.841 497.569C776.576 467.966 800.645 437.02 821.487 404.518C860.401 343.83 896.729 268.142 915.947 198.781Z"/>
	<path fill="#053460" d="M414.089 294.672C451.423 267.202 507.031 252.735 552.973 259.722C603.804 267.452 650.573 295.201 681.126 336.818C708.838 374.567 725.621 417.401 731.706 463.792C724.005 474.092 715.887 484.227 707.1 493.628C687.483 514.618 661.138 536.974 638.975 555.722C629.863 563.43 620.359 572.656 610.15 578.853L609.767 578.502L608.776 578.635C607.809 575.119 607.437 571.417 606.749 567.839C605.876 563.3 604.64 558.785 603.403 554.333C602.634 551.561 600.195 547.039 600.437 544.416C606.609 538.705 612.086 532.404 616.9 525.508C632.201 503.591 642.401 474.816 637.541 447.889C634.138 429.03 623.537 411.91 607.728 400.993C588.697 387.851 564.55 385.28 542.266 389.557C497.007 398.245 458.351 431.567 433.006 468.792C406.248 508.095 389.567 557.812 398.77 605.497C403.614 630.601 417.718 652.16 439.053 666.334C463.606 682.647 494.978 686.197 523.43 680.546C517.734 684.151 510.869 686.769 504.713 689.512C479.561 700.717 453.232 710.167 425.511 711.864C400.864 713.373 376.147 708.507 357.254 691.674C332.21 669.362 323.407 632.857 321.525 600.5C316.88 520.605 346.591 437.559 399.752 377.865C432.303 341.312 476.627 312.43 526.577 309.74C575.777 307.091 618.241 331.214 653.701 363.105C653.607 362.957 653.516 362.808 653.42 362.662C640.369 342.617 612.265 322.873 590.604 313.084C580.681 308.6 570.323 305.327 559.66 303.154C521.013 295.28 483.639 304.61 450.022 324.043C442.962 328.124 436.335 332.846 429.545 337.349C426.397 337.514 421.877 342.08 419.471 344.211C417.857 342.942 416.018 341.43 414.83 339.758C410.822 334.12 407.371 320.575 402.504 314.672C400.595 312.356 399.536 310.556 398.502 307.775C399.898 303.153 410.994 299.958 413.69 295.419C413.834 295.176 413.956 294.921 414.089 294.672Z"/>
	<path fill="#053460" d="M877.345 386.405C882.458 392.694 892.805 439.389 894.589 449.604C912.303 551.032 889.265 650.205 830.014 734.288C771.438 817.413 678.419 875.469 578.275 892.679C474.945 910.437 371.274 886.048 285.897 825.61C271.587 815.466 257.032 804.275 244.77 791.715C250.772 786.785 257.221 781.854 263.823 777.764C281.342 799.396 304.773 815.216 330.89 824.585C390.986 846.145 458.497 826.566 513.753 800.508C547.031 784.814 577.951 764.426 607.24 742.25C697.642 673.802 772.613 585.622 829.162 487.536C847.849 455.124 864.676 421.657 877.345 386.405Z"/>
	<path fill="#FEFEFE" d="M763.118 682.314C765.524 688.785 767.485 694.915 770.984 700.917L790.251 708.465L770.67 716.101C767.728 722.008 765.729 729.309 762.005 734.732C760.139 728.3 757.266 722.03 754.629 715.886C747.751 713.404 740.824 711.056 733.911 708.674C741.349 706.507 748.722 703.997 755.623 700.453C758.279 694.459 760.747 688.425 763.118 682.314Z"/>
	<path fill="#053460" d="M504.578 125.23C539.638 125.426 573.94 128.26 607.996 137.117C707.454 162.984 794.646 226.666 846.817 315.594C835.266 333.318 824.325 351.361 812.159 368.692C801.709 383.578 790.18 397.828 779.069 412.233C774.267 393.189 766.716 374.316 758.185 356.648C735.217 309.082 704.826 270.852 660.855 241.191C613.243 209.075 550.375 199.392 494.566 210.32C406.766 227.513 336.08 290.404 287.427 362.776L278.229 377.402C234.333 448.619 209.231 544.125 213.717 627.747C215.056 652.705 219.223 676.277 224.988 700.531C213.939 711.961 204.171 724.31 193.663 736.198C184.439 723.763 176.615 709.674 169.509 695.939C141.136 641.094 126.866 582.604 124.703 521.025C121.179 420.674 162.364 319.554 230.601 246.659C289.429 183.815 370.104 142.435 455.071 129.417C471.497 126.9 487.982 125.767 504.578 125.23Z"/>
	<path fill="#FEFEFE" d="M331.076 214.283C332.189 217.148 333.402 219.704 334.997 222.332L340.56 225.507C335.606 228.372 333.4 231.086 330.982 236.152C328.459 231.315 325.834 228.554 321.702 225.038C326.81 222.099 328.661 219.516 331.076 214.283Z"/>
	<path fill="#FEFEFE" d="M199.705 392.848C200.119 393.244 199.942 393.025 200.277 393.601C202.825 397.98 205.258 400.794 209.581 403.459C205.327 406.341 203.048 409.172 200.819 413.718C197.375 409.788 195.161 406.621 190.805 403.538C192.699 402.234 194.62 401.204 196.668 400.171C197.747 397.762 198.706 395.291 199.705 392.848Z"/>
	<path fill="#FEFEFE" d="M257.277 263.934C257.897 264.816 257.838 264.507 257.995 265.42C259.527 274.324 260.609 284.26 266.288 291.675C273.851 301.549 289.079 303.585 300.553 305.01C290.861 306.498 279.738 307.705 271.524 313.509C262.1 320.168 259.443 334.119 257.748 344.793L257.337 345.26C254.826 335.96 254.474 325.504 248.357 317.527C241.052 308.001 226.333 306.661 215.31 305.108C224.847 303.557 235.667 302.164 243.709 296.378C253.95 289.01 255.59 275.486 257.277 263.934Z"/>
</svg>
